<?xml version="1.0" encoding="UTF-8"?>
<svg xmlns="http://www.w3.org/2000/svg" xmlns:xlink="http://www.w3.org/1999/xlink" width="22px" height="29px" viewBox="0 0 22 29" version="1.1">
<g id="surface1">
<path style=" stroke:none;fill-rule:evenodd;fill:rgb(92.54902%,43.529412%,34.901961%);fill-opacity:1;" d="M 4.4375 12.960938 C 3.742188 6.828125 7.378906 2.511719 14.191406 0.0546875 C 10.019531 5.394531 17.75 11.179688 18.175781 16.722656 C 19.175781 15.039062 19.742188 12.796875 19.855469 9.796875 C 24.964844 17.703125 20.726562 30.621094 9.480469 28.761719 C 8.449219 28.59375 7.457031 28.269531 6.550781 27.792969 C 2.449219 25.632812 0 20.929688 0 16.4375 C 0 13.574219 1.242188 11.019531 2.847656 8.988281 C 3.0625 10.976562 3.523438 12.460938 4.4375 12.960938 Z M 4.4375 12.960938 "/>
<path style=" stroke:none;fill-rule:evenodd;fill:rgb(98.039216%,81.960784%,36.078431%);fill-opacity:1;" d="M 8.074219 21.820312 C 6.917969 18.871094 7.078125 14.105469 10.320312 12.433594 C 10.34375 17.910156 15.816406 18.609375 14.804688 24.457031 C 15.738281 23.410156 16.210938 21.742188 16.292969 20.425781 C 17.777344 23.773438 16.613281 26.449219 14.5 27.8125 C 8.070312 31.960938 2.53125 23.554688 6.214844 18.945312 C 6.324219 19.976562 7.605469 21.5625 8.074219 21.820312 Z M 8.074219 21.820312 "/>
</g>
</svg>
